<svg viewBox="0 0 1024 1024" xmlns="http://www.w3.org/2000/svg">
<path transform="translate(502,265)" d="m0 0h28l20 4 8 2v1l-9-1-8-1h-30l-17 3-9 3-17 6-11 6-10 7-10 9-10 10-9 13-9 17-6 21-2 11v28l4 20 6 16 8 15 10 14 13 13v2l4 2 11 8 14 8 14 6 21 6 17 2h17l15-2 19-5 18-8 16-10 14-12 12-13 10-15 8-17 2-6 1 4-5 17-9 19-10 14-12 13-10 10-21 14-18 8-16 5-16 3-8 1h-21l-18-2-22-6-19-8-18-12-11-9-13-13-13-18-9-19-5-15-3-15-1-9v-23l3-19 7-22 12-22 12-14 13-13 11-8 13-8 20-9 25-6z" fill="currentColor"/>
<path transform="translate(697,578)" d="m0 0h9l3 5 5 10 7 16 19 41 6 14-1 2h-13l-10-23-1-1h-32l-12-1-3 9-8 16h-7l-2-2 17-36 12-28 10-21z" fill="currentColor"/>
<path transform="translate(418,578)" d="m0 0h9l8 14 6 15 19 41 7 16v2h-13l-3-5-8-17-2-2h-30l-13-1-3 9-7 16h-9l1-5 13-29 19-41z" fill="currentColor"/>
<path transform="translate(555,578)" d="m0 0h46l12 4 6 4 5 6 2 8-1 10-4 6-8 7-7 3-7 2 24 24 7 8 4 4-1 2-16-1-7-8-14-15-18-18v-2l19-2 9-5 3-1 2-6v-12l-4-6-8-4-4-1-28-1v82h-12l-1-4z" fill="currentColor"/>
<path transform="translate(515,392)" d="m0 0 5 5 29 31 9 9 7 8 11 12 16 17 7 8v2h-29l-8-8-7-8-9-10-14-15-9-10-7-7-7-8-10-11 2-4 12-9h2z" fill="currentColor"/>
<path transform="translate(614,284)" d="m0 0h18l-1 3-8 7-10 9-11 9-9 8h-2v2l-11 9-14 12-11 9-13 11-10 8-13 11-16 13-12 10-14 11-10 9-10 8-16 13-4 2 1-3 8-7 8-8 8-7 17-16 13-12 16-15 8-7 5-4 5-5 17-16 11-9 5-5 12-11 5-5 13-12 15-13 8-8z" fill="currentColor"/>
<path transform="translate(472,312)" d="m0 0h21l1 26v49l-13 12h-2v2h-2v2l-6 4v-94z" fill="currentColor"/>
<path transform="translate(492,411)" d="m0 0 2 1v72h-23v-56l14-12z" fill="currentColor"/>
<path transform="translate(337,578)" d="m0 0h12l-6 7-15 13-12 11-7 6 2 4 14 14 8 7 24 24v2h-16l-12-12-8-7-19-19-8-7v-4l12-11 8-7 12-11 8-7z" fill="currentColor"/>
<path transform="translate(277,578)" d="m0 0h13v87l-3 1h-10z" fill="currentColor"/>
<path transform="translate(500,578)" d="m0 0h12l1 68v19l-1 1h-12l-1-1v-71z" fill="currentColor"/>
<path transform="translate(584,363)" d="m0 0 3 1-26 12-16 7-10 5 71 2 24 1v1l-22 1-72 2 38 15 9 4-3 1-50-17-14-6 5-4 14-6 29-11z" fill="currentColor"/>
<path transform="translate(490,698)" d="m0 0h6l8 16 5 11v2h-6l-2-6-15 1-2 4-5 1-1-2z" fill="currentColor"/>
<path transform="translate(419,697)" d="m0 0h5v30l-4 1-1-1v-12h-14v11l-5 1-1-4v-25h6v12h14z" fill="currentColor"/>
<path transform="translate(595,698)" d="m0 0h5v12h14v-12h5v29h-5v-12h-14v12h-5l-1-5z" fill="currentColor"/>
<path transform="translate(462,697)" d="m0 0 2 1v4l-6 1-10-1v8h14l-1 5-13-1v8h15l1 5h-21v-29z" fill="currentColor"/>
<path transform="translate(559,697)" d="m0 0h19l1 5h-9v24l-5 1-1-1-1-23h-7l-1-5z" fill="currentColor"/>
<path transform="translate(524,698)" d="m0 0h5v24h14v5h-19z" fill="currentColor"/>
<path transform="translate(647,710)" d="m0 0h34l36 1v1l-20 1-50 1z" fill="currentColor"/>
<path transform="translate(339,710)" d="m0 0h37l-1 4-46-1-22-1v-1z" fill="currentColor"/>
</svg>
